<svg width="1200" height="630" viewBox="0 0 1200 630" fill="none" xmlns="http://www.w3.org/2000/svg">
  <rect width="1200" height="630" rx="48" fill="#F1EFE8"/>
  <rect x="64" y="64" width="1072" height="502" rx="36" fill="#FFFFFF"/>
  <path d="M64 146C64 106.235 96.2355 74 136 74H344V566H136C96.2354 566 64 533.765 64 494V146Z" fill="#1D9E75"/>
  <circle cx="944" cy="136" r="92" fill="#E1F5EE"/>
  <circle cx="1016" cy="470" r="132" fill="#FAEEDA"/>
  <circle cx="272" cy="470" r="168" fill="#E6F1FB"/>
  <text x="124" y="220" fill="#FFFFFF" font-family="Arial, Helvetica, sans-serif" font-size="28" font-weight="700" letter-spacing="4">ROLEWAVE</text>
  <text x="124" y="288" fill="#FFFFFF" font-family="Arial, Helvetica, sans-serif" font-size="70" font-weight="700">Verified jobs</text>
  <text x="124" y="360" fill="#FFFFFF" font-family="Arial, Helvetica, sans-serif" font-size="70" font-weight="700">in Nigeria.</text>
  <text x="424" y="212" fill="#1A1A1A" font-family="Arial, Helvetica, sans-serif" font-size="22" font-weight="700" letter-spacing="3">CURATED JOB BOARD</text>
  <text x="424" y="272" fill="#1A1A1A" font-family="Arial, Helvetica, sans-serif" font-size="52" font-weight="700">Find your next role.</text>
  <text x="424" y="328" fill="#5F5E5A" font-family="Arial, Helvetica, sans-serif" font-size="28" font-weight="400">Remote, hybrid, and on-site openings from trusted teams.</text>
  <rect x="424" y="386" width="234" height="64" rx="32" fill="#1D9E75"/>
  <text x="475" y="427" fill="#FFFFFF" font-family="Arial, Helvetica, sans-serif" font-size="24" font-weight="700">Browse jobs</text>
  <rect x="686" y="386" width="280" height="64" rx="32" fill="#F1EFE8"/>
  <text x="732" y="427" fill="#085041" font-family="Arial, Helvetica, sans-serif" font-size="24" font-weight="700">Trusted companies</text>
</svg>
